<svg width="13" height="13" viewBox="0 0 13 13" fill="none" xmlns="http://www.w3.org/2000/svg">
<path fill-rule="evenodd" clip-rule="evenodd" d="M8.61136 12.6667C8.59736 12.6667 8.58403 12.666 8.5707 12.6653C8.26936 12.6473 8.01803 12.4287 7.95803 12.1327L6.9327 7.088C6.87936 6.82533 6.6747 6.62067 6.41203 6.56733L1.36736 5.54133C1.07136 5.482 0.852696 5.23067 0.834696 4.92933C0.816696 4.62733 1.0027 4.35133 1.28936 4.25667L11.956 0.701332C12.1954 0.619999 12.4594 0.682666 12.638 0.861999C12.8167 1.04067 12.8787 1.30467 12.7994 1.544L9.24336 12.2107C9.1527 12.4847 8.8967 12.6667 8.61136 12.6667Z" fill="black"/>
</svg>
