<svg width="16" height="12" viewBox="0 0 16 12" fill="none" xmlns="http://www.w3.org/2000/svg">
<path fill-rule="evenodd" clip-rule="evenodd" d="M7.64838 11.6484C7.42334 11.8734 7.11817 11.9997 6.79998 11.9997C6.48178 11.9997 6.17661 11.8734 5.95158 11.6484L1.15158 6.84839C0.926611 6.62336 0.800232 6.31819 0.800232 5.99999C0.800232 5.6818 0.926611 5.37663 1.15158 5.15159L5.95158 0.351595C6.1779 0.133005 6.48102 0.0120513 6.79566 0.0147854C7.11029 0.0175195 7.41127 0.143722 7.63376 0.366212C7.85625 0.588702 7.98245 0.889677 7.98518 1.20431C7.98792 1.51895 7.86697 1.82207 7.64838 2.04839L4.89678 4.79999H14C14.3182 4.79999 14.6235 4.92642 14.8485 5.15147C15.0735 5.37651 15.2 5.68173 15.2 5.99999C15.2 6.31825 15.0735 6.62348 14.8485 6.84852C14.6235 7.07357 14.3182 7.19999 14 7.19999H4.89678L7.64838 9.9516C7.87334 10.1766 7.99972 10.4818 7.99972 10.8C7.99972 11.1182 7.87334 11.4234 7.64838 11.6484Z" fill="black"/>
</svg>
